<svg xmlns="http://www.w3.org/2000/svg" viewBox="0 0 480 270"><g transform="translate(36,0) skewX(-8)" stroke-linecap="round" fill="none"><path d="M20 30H300M20 64H420M20 98H360M20 132H440M20 166H280M20 200H400M20 234H330" stroke="var(--border-strong)" stroke-width="7"/><rect x="124" y="50" width="132" height="28" rx="14" fill="var(--job-bg)" stroke="none"/><path d="M134 64H246" stroke="var(--text)" stroke-width="7"/><path d="M126 82H254" stroke="var(--job-ink)" stroke-width="3"/><path d="M122 46V82M258 46V82" stroke="var(--text)" stroke-width="3.5"/><rect x="196" y="118" width="166" height="28" rx="14" fill="var(--pain-bg)" stroke="none"/><path d="M206 132H352" stroke="var(--text)" stroke-width="7"/><path d="M198 150H358" stroke="var(--pain-ink)" stroke-width="3" stroke-dasharray="7 5"/><path d="M194 114V150M364 114V150" stroke="var(--text)" stroke-width="3.5"/><rect x="64" y="186" width="128" height="28" rx="14" fill="var(--gain-bg)" stroke="none"/><path d="M74 200H182" stroke="var(--text)" stroke-width="7"/><path d="M66 218H188" stroke="var(--gain-ink)" stroke-width="3" stroke-dasharray="1 6"/><path d="M62 182V218M194 182V218" stroke="var(--text)" stroke-width="3.5"/></g></svg>
